<svg xmlns="http://www.w3.org/2000/svg" width="64" height="64">
    <path
        d="M8.4033 52.5531v-13.362h2.698v5.259h5.2864v-5.259h2.698v13.362h-2.698v-5.8425h-5.2865v5.8425zm16.4792 0V41.4515h-3.965v-2.2604h10.6187v2.2604h-3.9558v11.1016zm11.4024 0V41.4515h-3.965v-2.2604h10.6186v2.2604h-3.9557v11.1016zm8.3945 0v-13.362h4.3294q2.461 0 3.2084.2005 1.1484.3008 1.9232 1.3125.7747 1.0026.7747 2.5976 0 1.2305-.4466 2.069-.4466.8386-1.1393 1.3217-.6836.474-1.3946.6289-.9661.1914-2.7982.1914h-1.759v5.0404zm2.698-11.1016v3.7916h1.4765q1.595 0 2.1328-.2096.5378-.2096.8386-.6562.3098-.4467.3098-1.0391 0-.7292-.4283-1.2031-.4284-.474-1.0847-.5925-.483-.0911-1.9414-.0911zm-7.195-17.5727a1.2764 1.2965 0 0 0 0 1.7896 1.1807 1.1992 0 0 0 1.7095 0 5.1012 5.1813 0 0 0-.005-7.1607 1.1807 1.1992 0 0 0-1.7073 0 1.2764 1.2965 0 0 0 0 1.7896c.9437.9886.946 2.593.002 3.5815m5.1194-8.9549a1.1807 1.1992 0 0 0-1.7095 0 1.2764 1.2965 0 0 0 .002 1.792 7.6518 7.7719 0 0 1 .005 10.7421 1.2764 1.2965 0 0 0 0 1.792 1.1807 1.1992 0 0 0 1.7095 0c3.7678-3.959 3.7655-10.3719-.007-14.3261zm-8.9965 4.8479c1.2194 0 2.211 1.0372 2.211 2.3151 0 1.278-.9916 2.3151-2.211 2.3151-1.2172 0-2.2042-1.0371-2.2042-2.315 0-1.278.987-2.3152 2.2042-2.3152M34.6519 9.3537c1.5204 0 2.758 1.2965 2.758 2.894v5.209h-2.2064v-4.6303h-9.9333v17.3635h9.9333v-3.4727h2.2042v5.209c0 1.5975-1.2354 2.894-2.758 2.894h-8.828c-1.527 0-2.7625-1.2965-2.7625-2.894V12.2477c.002-1.5975 1.2377-2.894 2.758-2.894z"
        style="display:inline;fill:#FFF" />
</svg>